<?xml version="1.0" encoding="UTF-8" standalone="no"?>
<svg
   xmlns:dc="http://purl.org/dc/elements/1.1/"
   xmlns:cc="http://creativecommons.org/ns#"
   xmlns:rdf="http://www.w3.org/1999/02/22-rdf-syntax-ns#"
   xmlns:svg="http://www.w3.org/2000/svg"
   xmlns="http://www.w3.org/2000/svg"
   xmlns:sodipodi="http://sodipodi.sourceforge.net/DTD/sodipodi-0.dtd"
   xmlns:inkscape="http://www.inkscape.org/namespaces/inkscape"
   version="1.1"
   x="0px"
   y="0px"
   viewBox="0 0 100 100"
   xml:space="preserve"
   id="svg38"
   sodipodi:docname="noun_people_2263088.svg"
   width="100"
   height="100"
   inkscape:version="1.0.1 (3bc2e813f5, 2020-09-07)"><metadata
     id="metadata44"><rdf:RDF><cc:Work
         rdf:about=""><dc:format>image/svg+xml</dc:format><dc:type
           rdf:resource="http://purl.org/dc/dcmitype/StillImage" /><dc:title></dc:title></cc:Work></rdf:RDF></metadata><defs
     id="defs42" /><sodipodi:namedview
     pagecolor="#ffffff"
     bordercolor="#666666"
     borderopacity="1"
     objecttolerance="10"
     gridtolerance="10"
     guidetolerance="10"
     inkscape:pageopacity="0"
     inkscape:pageshadow="2"
     inkscape:window-width="1266"
     inkscape:window-height="892"
     id="namedview40"
     showgrid="false"
     inkscape:zoom="4.70625"
     inkscape:cx="82.850018"
     inkscape:cy="32.412367"
     inkscape:window-x="26"
     inkscape:window-y="23"
     inkscape:window-maximized="0"
     inkscape:current-layer="svg38" /><g
     id="g32"
     transform="matrix(0.10135931,0,0,0.10135931,-2.353026,-1.5666922)"><g
       id="g6"><g
         id="g4"><path
           d="m 885.2,754.7 c 0,0.1 0,0.3 0,0.4 0.5,-1.7 0.9,-3.4 1.4,-5 -48.3,75.7 -119.4,136.1 -202.2,171 -24.3,10.3 -49.6,18.2 -75.3,24 4.2,3.2 8.4,6.4 12.7,9.6 0,-36 0,-71.9 0,-107.9 0,-36.9 1,-73.9 -0.1,-110.8 -1.3,-45.6 -16.8,-89.6 -49.8,-121.9 -0.7,5.2 -1.3,10.5 -2,15.7 25.3,-11.5 53.3,-17.3 80.9,-19.8 29.8,-2.7 60.3,-2.5 90,1.7 46.8,6.6 97.2,24.3 124,65.9 14.6,23.1 20.3,50 20.4,77.1 0.1,12.9 20.1,12.9 20,0 -0.1,-27.2 -5.3,-54.5 -18.3,-78.7 -11.6,-21.5 -29.3,-39.3 -49.9,-52.4 -23.7,-15.1 -51.2,-24.1 -78.7,-29.1 -31.9,-5.9 -64.6,-7.3 -96.9,-5.3 -35,2.2 -69.7,8.8 -101.8,23.4 -5.9,2.7 -6.3,11.6 -2,15.7 27,26.5 41.1,61.9 43.6,99.4 0.9,13.8 0.5,27.7 0.5,41.5 0,48.3 0,96.7 0,145 0,13.5 0,27 0,40.5 0,6.7 6.4,11.1 12.7,9.6 93.9,-21.2 180.2,-72.1 244.1,-144.1 9,-10.1 17.4,-20.6 25.5,-31.4 3.9,-5.3 7.8,-10.6 11.5,-16 3.5,-5.1 9.7,-11.8 9.7,-18.2 0,-12.8 -20,-12.8 -20,0.1 z"
           id="path2" /></g></g><g
       id="g12"><g
         id="g10"><path
           d="m 789.5,436.3 c -0.3,42 -26.8,81.1 -66.6,95.4 -40.5,14.5 -85.7,2 -113.2,-30.8 -27.4,-32.7 -30.4,-81 -8.4,-117.3 21.7,-35.7 64.9,-55.2 106,-47 47.5,9.5 82,51.4 82.2,99.7 0.1,12.9 20.1,12.9 20,0 -0.3,-50.9 -32.4,-96.5 -80.1,-114.2 -47.2,-17.5 -102.9,-2.4 -134.8,36.5 -32.4,39.6 -37.4,96.5 -10.6,140.5 26.6,43.8 78.6,66.1 128.6,56.1 48.2,-9.6 87.6,-50.3 95.2,-99 1,-6.6 1.6,-13.2 1.7,-19.9 0.1,-12.9 -19.9,-12.9 -20,0 z"
           id="path8" /></g></g><g
       id="g18"><g
         id="g16"><path
           d="m 601.6,742.9 c 0,23.8 0,47.7 0,71.5 0,38 0,76 0,114 0,8.8 0,17.5 0,26.3 2.4,-3.2 4.9,-6.4 7.3,-9.6 -74.8,16.6 -153.4,13.7 -226.7,-8.6 -64.4,-19.6 -124,-54.2 -173.1,-100.1 -27.4,-25.7 -51.5,-54.6 -71.7,-86.3 0.5,1.7 0.9,3.4 1.4,5 0,-17.4 0.2,-34.7 3.7,-51.5 3.9,-18.7 10.1,-35.1 20.4,-51.1 19.1,-29.8 50.4,-50.6 83.8,-62.8 40.6,-14.8 84.1,-19.3 127.1,-19 52.6,0.4 108.5,7.9 154.4,35.3 23.1,13.8 42.5,32.8 55.2,56.6 13.3,24.7 18.1,52.6 18.2,80.3 0,12.9 20,12.9 20,0 -0.2,-44.7 -12.9,-88.6 -43.4,-122.1 -31.9,-35 -78,-53.7 -123.7,-62.5 -45.3,-8.7 -92.7,-9.9 -138.5,-4.6 -36.6,4.3 -73.1,13 -105.9,30.4 -29.5,15.7 -55,39.1 -70.7,68.7 -16.4,30.9 -21.6,66.1 -20.7,100.8 0.1,4.5 2.1,7.7 4.5,11.4 3.1,4.7 6.2,9.3 9.4,13.9 6.4,9 13.1,17.8 20.1,26.4 13.3,16.4 27.8,31.8 43.2,46.2 31.6,29.4 67.3,54.5 105.8,74 83.7,42.5 179.3,58.5 272.3,46 13.4,-1.8 26.8,-4.2 40,-7.1 4.3,-0.9 7.3,-5.4 7.3,-9.6 0,-23.8 0,-47.7 0,-71.5 0,-38 0,-76 0,-114 0,-8.8 0,-17.5 0,-26.3 0.3,-12.9 -19.7,-13 -19.7,-0.1 z"
           id="path14" /></g></g><g
       id="g24"><g
         id="g22"><path
           d="m 490.2,373.4 c -0.3,49.5 -31.6,95.7 -78.5,112.6 -47.9,17.3 -101.6,2.5 -134.2,-36.5 -32.1,-38.4 -35.8,-95.1 -10.2,-137.8 25.7,-42.8 77.2,-66 126.3,-56 49.2,10 87.4,50.1 95.3,99.7 1,6 1.3,12 1.3,18 0.1,12.9 20.1,12.9 20,0 -0.3,-58.4 -37.2,-111 -92,-131.4 -54.6,-20.3 -118.9,-2.9 -155.7,42.2 -37.3,45.5 -42.8,111 -12.1,161.6 30.5,50.3 90.3,76.2 147.9,64.8 55.9,-11.1 101.3,-58.1 110,-114.5 1.2,-7.5 1.8,-15.1 1.9,-22.7 0.1,-12.8 -19.9,-12.8 -20,0 z"
           id="path20" /></g></g><g
       id="g30"><g
         id="g28"><path
           d="M 955.7,512 C 955.5,616.7 918.3,719.5 850.2,799.3 787.9,872.4 702.8,924.1 609,945.1 510.5,967.2 405,954.7 314.7,909.6 231.4,868 162.5,800.6 119,718.3 72.4,629.9 57.2,526 76.2,427.9 92,346.4 130.7,270.2 187.3,209.5 243.7,149.1 316.4,105 396.2,83.5 479.1,61.1 568,63.5 649.7,90 c 78,25.3 147.8,72.8 200.9,135.1 54,63.4 89,141.9 100.8,224.3 3,20.8 4.3,41.7 4.3,62.6 0,12.9 20,12.9 20,0 C 975.6,423.6 950.2,335.9 902.3,261.5 856.1,189.7 790,131 713,94 632.3,55.3 541,40.5 452.2,52.2 365.5,63.5 283.5,99.3 216.1,155 149.6,209.9 99.4,283.5 72,365.2 40.5,459.3 40.4,563.8 71.7,658 c 31.8,95.5 94.7,178.9 177.5,236.1 81.1,56.1 179.8,84.7 278.3,81.4 106.2,-3.6 208.8,-44.1 289,-113.7 78.9,-68.5 133.4,-163.9 151.8,-266.7 4.9,-27.4 7.4,-55.2 7.5,-83 0,-13 -20,-13 -20.1,-0.1 z"
           id="path26" /></g></g></g></svg>
